<svg width="186" height="35" viewBox="0 0 186 35" fill="none" xmlns="http://www.w3.org/2000/svg">
<path d="M23.0684 16.4238C23.0684 17.4492 22.9316 18.4258 22.6582 19.3535C22.3848 20.2715 21.999 21.1211 21.501 21.9023C21.0127 22.6836 20.4268 23.3916 19.7432 24.0264C19.0596 24.6514 18.3027 25.1836 17.4727 25.623C16.6523 26.0625 15.7686 26.4043 14.8213 26.6484C13.8838 26.8828 12.917 27 11.9209 27H2.61914V5.90625H11.9209C12.917 5.90625 13.8838 6.02344 14.8213 6.25781C15.7588 6.49219 16.6377 6.8291 17.458 7.26855C18.2881 7.69824 19.0449 8.22559 19.7285 8.85059C20.4219 9.47559 21.0127 10.1787 21.501 10.96C21.999 11.7314 22.3848 12.5811 22.6582 13.5088C22.9316 14.4268 23.0684 15.3984 23.0684 16.4238ZM17.165 16.4238C17.165 15.2812 17.0234 14.1973 16.7402 13.1719C16.4668 12.1367 16.0371 11.2285 15.4512 10.4473C14.8652 9.66602 14.1182 9.0459 13.21 8.58691C12.3115 8.12793 11.2324 7.89844 9.97266 7.89844H8.43457V24.9492H9.97266C11.2129 24.9492 12.2822 24.7197 13.1807 24.2607C14.0889 23.792 14.8359 23.167 15.4219 22.3857C16.0176 21.5947 16.457 20.6865 16.7402 19.6611C17.0234 18.6357 17.165 17.5566 17.165 16.4238ZM31.2568 5.99414C31.2568 6.36523 31.1836 6.7168 31.0371 7.04883C30.9004 7.38086 30.71 7.66895 30.4658 7.91309C30.2217 8.15723 29.9336 8.35254 29.6016 8.49902C29.2695 8.63574 28.918 8.7041 28.5469 8.7041C28.1758 8.7041 27.8242 8.63574 27.4922 8.49902C27.1699 8.35254 26.8867 8.15723 26.6426 7.91309C26.3984 7.66895 26.2031 7.38086 26.0566 7.04883C25.9199 6.7168 25.8516 6.36523 25.8516 5.99414C25.8516 5.62305 25.9199 5.27637 26.0566 4.9541C26.2031 4.62207 26.3984 4.33398 26.6426 4.08984C26.8867 3.8457 27.1699 3.65527 27.4922 3.51855C27.8242 3.37207 28.1758 3.29883 28.5469 3.29883C28.918 3.29883 29.2695 3.37207 29.6016 3.51855C29.9336 3.65527 30.2217 3.8457 30.4658 4.08984C30.71 4.33398 30.9004 4.62207 31.0371 4.9541C31.1836 5.27637 31.2568 5.62305 31.2568 5.99414ZM31.0371 27H26.0713V10.0957H31.0371V27ZM43.8984 27H39.4453L33.293 10.0811H38.2441L42.7559 23.5576L47.1357 10.0811H50.5635L43.8984 27ZM56.3789 18.9727C56.9844 19.1094 57.5898 19.2168 58.1953 19.2949C58.8008 19.373 59.4111 19.4121 60.0264 19.4121C60.6709 19.4121 61.2666 19.3535 61.8135 19.2363C62.3701 19.1094 62.8486 18.9043 63.249 18.6211C63.6592 18.3281 63.9814 17.9424 64.2158 17.4639C64.4502 16.9854 64.5674 16.3896 64.5674 15.6768C64.5674 15.1006 64.4893 14.5732 64.333 14.0947C64.1768 13.6162 63.9424 13.2061 63.6299 12.8643C63.3271 12.5225 62.9512 12.2588 62.502 12.0732C62.0527 11.8779 61.5303 11.7803 60.9346 11.7803C60.3779 11.7803 59.875 11.8828 59.4258 12.0879C58.9863 12.293 58.5957 12.5713 58.2539 12.9229C57.9219 13.2646 57.6338 13.665 57.3896 14.124C57.1553 14.583 56.96 15.0615 56.8037 15.5596C56.6475 16.0576 56.5352 16.5605 56.4668 17.0684C56.3984 17.5762 56.3643 18.0547 56.3643 18.5039C56.3643 18.582 56.3643 18.6602 56.3643 18.7383C56.3643 18.8164 56.3691 18.8945 56.3789 18.9727ZM68.5811 15.6328C68.5811 16.3262 68.4688 16.9463 68.2441 17.4932C68.0195 18.0303 67.7119 18.5039 67.3213 18.9141C66.9404 19.3242 66.4961 19.6709 65.9883 19.9541C65.4805 20.2373 64.9385 20.4717 64.3623 20.6572C63.7861 20.833 63.1904 20.96 62.5752 21.0381C61.9697 21.1162 61.3789 21.1553 60.8027 21.1553C60.0703 21.1553 59.3477 21.1064 58.6348 21.0088C57.9219 20.9014 57.2188 20.7354 56.5254 20.5107C56.6328 21.1553 56.8037 21.7705 57.0381 22.3564C57.2725 22.9326 57.585 23.4404 57.9756 23.8799C58.3662 24.3096 58.8447 24.6514 59.4111 24.9053C59.9873 25.1592 60.666 25.2861 61.4473 25.2861C61.9648 25.2861 62.458 25.208 62.9268 25.0518C63.3955 24.8955 63.8252 24.6758 64.2158 24.3926C64.6064 24.1094 64.9482 23.7725 65.2412 23.3818C65.5439 22.9912 65.7881 22.5566 65.9736 22.0781L68.1123 22.8691C67.79 23.6406 67.3457 24.3096 66.7793 24.876C66.2227 25.4326 65.5879 25.8965 64.875 26.2676C64.1719 26.6289 63.4199 26.8975 62.6191 27.0732C61.8281 27.249 61.042 27.3369 60.2607 27.3369C58.9717 27.3369 57.7803 27.1221 56.6865 26.6924C55.5928 26.2529 54.6504 25.6426 53.8594 24.8613C53.0684 24.0801 52.4482 23.1475 51.999 22.0635C51.5498 20.9795 51.3252 19.793 51.3252 18.5039C51.3252 17.2148 51.5498 16.0283 51.999 14.9443C52.4482 13.8604 53.0684 12.9277 53.8594 12.1465C54.6504 11.3652 55.5928 10.7598 56.6865 10.3301C57.7803 9.89062 58.9717 9.6709 60.2607 9.6709C60.8857 9.6709 61.5254 9.71484 62.1797 9.80273C62.834 9.89062 63.4688 10.0322 64.084 10.2275C64.6992 10.4131 65.2803 10.6572 65.8271 10.96C66.374 11.2627 66.8477 11.6387 67.248 12.0879C67.6582 12.5273 67.9805 13.04 68.2148 13.626C68.459 14.2119 68.5811 14.8809 68.5811 15.6328ZM86.0566 11.5752L83.2734 16.1895C83.1562 15.7988 83.0049 15.3594 82.8193 14.8711C82.6338 14.3828 82.4043 13.9287 82.1309 13.5088C81.8574 13.0791 81.5303 12.7227 81.1494 12.4395C80.7686 12.1465 80.3291 12 79.8311 12C79.3721 12 78.9717 12.1172 78.6299 12.3516C78.2979 12.5859 78.0146 12.8936 77.7803 13.2744C77.5459 13.6455 77.3506 14.0703 77.1943 14.5488C77.0479 15.0176 76.9307 15.4961 76.8428 15.9844C76.7646 16.4629 76.7109 16.9268 76.6816 17.376C76.6523 17.8154 76.6377 18.1963 76.6377 18.5186V27H71.6719V10.0811H73.5762L75.583 14.0215C75.8564 13.3867 76.1689 12.8057 76.5205 12.2783C76.8721 11.7412 77.2773 11.2822 77.7363 10.9014C78.1953 10.5107 78.7129 10.208 79.2891 9.99316C79.875 9.77832 80.5342 9.6709 81.2666 9.6709C81.6475 9.6709 82.0723 9.70508 82.541 9.77344C83.0098 9.83203 83.4688 9.93945 83.918 10.0957C84.3672 10.2422 84.7822 10.4375 85.1631 10.6816C85.5439 10.9258 85.8418 11.2236 86.0566 11.5752ZM102.697 21.5947C102.697 22.3369 102.59 22.9961 102.375 23.5723C102.16 24.1484 101.867 24.6514 101.496 25.0811C101.125 25.501 100.686 25.8574 100.178 26.1504C99.6699 26.4336 99.123 26.6631 98.5371 26.8389C97.9609 27.0146 97.3555 27.1416 96.7207 27.2197C96.0859 27.2979 95.4561 27.3369 94.8311 27.3369C93.9912 27.3369 93.249 27.2832 92.6045 27.1758C91.96 27.0684 91.3447 26.8975 90.7588 26.6631C90.1729 26.4189 89.5869 26.1064 89.001 25.7256C88.4248 25.3447 87.7803 24.8809 87.0674 24.334L89.9531 21.9756C90.2168 22.4736 90.5635 22.9277 90.9932 23.3379C91.4326 23.7383 91.8867 24.085 92.3555 24.3779C92.8242 24.6709 93.2783 24.8955 93.7178 25.0518C94.1572 25.208 94.5137 25.2861 94.7871 25.2861C95.0117 25.2861 95.2656 25.2812 95.5488 25.2715C95.832 25.252 96.1201 25.2227 96.4131 25.1836C96.7061 25.1348 96.9941 25.0664 97.2773 24.9785C97.5605 24.8906 97.8096 24.7734 98.0244 24.627C98.249 24.4707 98.4248 24.2803 98.5518 24.0557C98.6885 23.8213 98.7568 23.543 98.7568 23.2207C98.7568 22.8887 98.6689 22.6006 98.4932 22.3564C98.3271 22.1025 98.1074 21.8828 97.834 21.6973C97.5605 21.5117 97.248 21.3555 96.8965 21.2285C96.5449 21.1016 96.1885 20.9893 95.8271 20.8916C95.4756 20.7939 95.1338 20.7109 94.8018 20.6426C94.4697 20.5645 94.1816 20.4912 93.9375 20.4229C93.4883 20.2959 93.0146 20.1689 92.5166 20.042C92.0186 19.9053 91.5254 19.7539 91.0371 19.5879C90.5488 19.4121 90.0801 19.207 89.6309 18.9727C89.1914 18.7383 88.8008 18.46 88.459 18.1377C88.127 17.8057 87.8584 17.4199 87.6533 16.9805C87.458 16.5312 87.3604 16.0088 87.3604 15.4131C87.3604 14.3193 87.5752 13.4062 88.0049 12.6738C88.4443 11.9316 89.0205 11.3408 89.7334 10.9014C90.4463 10.4521 91.2568 10.1348 92.165 9.94922C93.0732 9.76367 93.9961 9.6709 94.9336 9.6709C95.5781 9.6709 96.2568 9.73926 96.9697 9.87598C97.6826 10.0029 98.376 10.1982 99.0498 10.4619C99.7236 10.7158 100.354 11.0283 100.939 11.3994C101.525 11.7705 102.014 12.1953 102.404 12.6738L99.5186 15.0469C99.3037 14.4609 99.0205 13.958 98.6689 13.5381C98.3271 13.1182 97.9512 12.7764 97.541 12.5127C97.1406 12.2393 96.7256 12.0391 96.2959 11.9121C95.876 11.7852 95.4854 11.7217 95.124 11.7217C94.7725 11.7217 94.377 11.7363 93.9375 11.7656C93.498 11.7949 93.083 11.8779 92.6924 12.0146C92.3115 12.1514 91.9844 12.3613 91.7109 12.6445C91.4473 12.918 91.3154 13.2988 91.3154 13.7871C91.3154 14.1387 91.3936 14.4414 91.5498 14.6953C91.7158 14.9395 91.9307 15.1543 92.1943 15.3398C92.458 15.5156 92.7559 15.667 93.0879 15.7939C93.4297 15.9111 93.7764 16.0186 94.1279 16.1162C94.4795 16.2041 94.8213 16.2822 95.1533 16.3506C95.4854 16.4189 95.7832 16.4922 96.0469 16.5703C96.4961 16.6973 96.9697 16.8291 97.4678 16.9658C97.9756 17.0928 98.4736 17.2441 98.9619 17.4199C99.4502 17.5859 99.9189 17.7861 100.368 18.0205C100.827 18.2451 101.228 18.5234 101.569 18.8555C101.911 19.1875 102.185 19.5781 102.39 20.0273C102.595 20.4668 102.697 20.9893 102.697 21.5947ZM111.032 5.99414C111.032 6.36523 110.959 6.7168 110.812 7.04883C110.676 7.38086 110.485 7.66895 110.241 7.91309C109.997 8.15723 109.709 8.35254 109.377 8.49902C109.045 8.63574 108.693 8.7041 108.322 8.7041C107.951 8.7041 107.6 8.63574 107.268 8.49902C106.945 8.35254 106.662 8.15723 106.418 7.91309C106.174 7.66895 105.979 7.38086 105.832 7.04883C105.695 6.7168 105.627 6.36523 105.627 5.99414C105.627 5.62305 105.695 5.27637 105.832 4.9541C105.979 4.62207 106.174 4.33398 106.418 4.08984C106.662 3.8457 106.945 3.65527 107.268 3.51855C107.6 3.37207 107.951 3.29883 108.322 3.29883C108.693 3.29883 109.045 3.37207 109.377 3.51855C109.709 3.65527 109.997 3.8457 110.241 4.08984C110.485 4.33398 110.676 4.62207 110.812 4.9541C110.959 5.27637 111.032 5.62305 111.032 5.99414ZM110.812 27H105.847V10.0957H110.812V27ZM127.217 27L127.277 7.74L122.267 19.23H121.247L116.237 7.74V27H115.187V5.97H116.627L121.757 17.73L126.857 5.97H128.327V27H127.217ZM142.903 18.93C142.903 20.29 142.773 21.49 142.513 22.53C142.253 23.55 141.923 24.34 141.523 24.9C141.143 25.46 140.683 25.91 140.143 26.25C138.783 27.13 137.293 27.31 135.673 26.79C135.113 26.61 134.523 26.29 133.903 25.83C133.283 25.35 132.783 24.6 132.403 23.58C132.023 22.56 131.833 21.31 131.833 19.83C131.833 17.43 132.313 15.48 133.273 13.98C134.233 12.46 135.613 11.7 137.413 11.7C139.233 11.7 140.593 12.41 141.493 13.83C142.413 15.25 142.883 16.95 142.903 18.93ZM137.023 25.95L137.383 25.98L137.713 25.95C140.433 25.69 141.793 23.4 141.793 19.08C141.793 17.3 141.433 15.81 140.713 14.61C139.993 13.41 138.843 12.81 137.263 12.81C136.243 12.81 135.393 13.16 134.713 13.86C133.533 15.1 132.943 17.03 132.943 19.65V19.89C132.943 21.55 133.283 22.95 133.963 24.09C134.643 25.21 135.663 25.83 137.023 25.95ZM155.451 27L155.481 19.08C155.481 17.4 155.071 15.94 154.251 14.7C153.451 13.44 152.441 12.81 151.221 12.81C150.021 12.81 148.691 13.64 147.231 15.3V27H146.121V12H147.231V13.8C148.531 12.4 149.941 11.7 151.461 11.7C152.481 11.7 153.541 12.18 154.641 13.14C155.201 13.66 155.661 14.43 156.021 15.45C156.401 16.47 156.591 17.67 156.591 19.05L156.561 27H155.451ZM170.283 25.92V27.03C169.083 27.03 168.023 26.98 167.103 26.88C166.203 26.78 165.263 26.57 164.283 26.25C163.303 25.91 162.493 25.46 161.853 24.9C161.233 24.34 160.713 23.57 160.293 22.59C159.893 21.59 159.693 20.41 159.693 19.05C159.693 17.67 159.873 16.47 160.233 15.45C160.613 14.43 161.093 13.66 161.673 13.14C162.753 12.18 163.803 11.7 164.823 11.7C166.523 11.7 167.843 12.2 168.783 13.2C169.743 14.2 170.223 15.52 170.223 17.16C170.223 18.26 170.213 18.9 170.193 19.08H160.803C160.803 21.66 161.573 23.45 163.113 24.45C164.653 25.43 167.043 25.92 170.283 25.92ZM169.113 17.97V17.31C169.113 15.99 168.733 14.91 167.973 14.07C167.233 13.23 166.243 12.81 165.003 12.81C163.783 12.81 162.813 13.3 162.093 14.28C161.393 15.24 160.973 16.47 160.833 17.97H169.113ZM182.572 12H183.682V27.39C183.682 28.77 183.512 29.97 183.172 30.99C182.832 32.03 182.392 32.8 181.852 33.3C180.852 34.28 179.852 34.77 178.852 34.77C177.532 34.77 176.272 34.21 175.072 33.09V31.65C176.332 32.99 177.532 33.66 178.672 33.66C179.832 33.66 180.772 33.04 181.492 31.8C182.212 30.56 182.572 29.08 182.572 27.36V26.88C178.992 26.74 176.492 25.96 175.072 24.54C173.832 23.26 173.212 21.39 173.212 18.93C173.212 14.51 173.222 12.2 173.242 12H174.352C174.332 12.18 174.322 14.5 174.322 18.96C174.322 21.58 175.132 23.4 176.752 24.42C178.192 25.32 180.132 25.77 182.572 25.77V12Z" fill="black"/>
</svg>
