<svg width="80" height="80" viewBox="0 0 80 80" fill="none" xmlns="http://www.w3.org/2000/svg">
<g clip-path="url(#clip0_34_329)">
<rect width="80" height="80" rx="40" fill="#FFA6E6"/>
<path d="M19.07 30.47C19.07 30.47 20.64 10.24 40.66 10.24C60.68 10.24 62.3 30.55 62.3 30.55C62.3 30.55 71.73 29.75 71.73 38.16C71.73 46.57 62.45 45.28 62.45 45.28C62.45 45.28 60.91 67.15 42.03 67.15C20.92 67.15 18.63 46.36 18.63 46.36C18.63 46.36 9.62004 47.07 8.70004 40.1C7.62004 31.9 19.07 30.46 19.07 30.46V30.47Z" fill="#C26450"/>
<path d="M64.3001 39.4901C64.4501 39.3501 64.6001 39.2101 64.7601 39.0801C64.8001 39.0501 64.8401 39.0201 64.8701 38.9901C64.9801 38.9001 64.7301 39.09 64.8401 39.01C64.9201 38.95 65.0001 38.9001 65.0801 38.8401C65.4201 38.6101 65.7701 38.4001 66.1401 38.2201C66.2301 38.1801 66.3101 38.14 66.4001 38.1C66.4201 38.09 66.5801 38.0201 66.4501 38.0801C66.3201 38.1401 66.4701 38.0801 66.5001 38.0601C66.6901 37.9801 66.8801 37.92 67.0801 37.85C67.4701 37.73 67.8701 37.6401 68.2801 37.5701C68.8001 37.4901 69.1301 36.8101 68.9801 36.3401C68.8001 35.7801 68.3101 35.5501 67.7501 35.6401C65.9301 35.9301 64.2201 36.8101 62.8801 38.0701C62.5001 38.4301 62.4901 39.1301 62.8801 39.4801C63.2701 39.8301 63.8901 39.8601 64.2901 39.4801L64.3001 39.4901Z" fill="black"/>
<path d="M12.5101 38.3301C12.5101 38.3301 12.6001 38.3401 12.6401 38.3401C12.3701 38.3201 12.5301 38.3301 12.6001 38.3401C12.7001 38.3601 12.7901 38.3701 12.8901 38.3901C13.0701 38.4301 13.2501 38.4801 13.4201 38.5301C13.5101 38.5601 13.6101 38.5901 13.7001 38.6201C13.7401 38.6301 13.7801 38.6501 13.8201 38.6701C13.8401 38.6701 14.0401 38.7601 13.8801 38.6901C13.7401 38.6301 13.8801 38.6901 13.9101 38.7001C13.9601 38.7201 14.0101 38.7501 14.0601 38.7701C14.1501 38.8101 14.2301 38.8601 14.3201 38.9001C14.4801 38.9901 14.6401 39.0801 14.7901 39.1901C14.8701 39.2401 14.9501 39.3001 15.0301 39.3601C15.0501 39.3801 15.1801 39.4701 15.0601 39.3801C14.9301 39.2801 15.0801 39.4001 15.1101 39.4201C15.4101 39.6701 15.6901 39.9501 15.9301 40.2501C16.2601 40.6501 17.0001 40.6201 17.3401 40.2501C17.7401 39.8201 17.7001 39.2701 17.3401 38.8401C16.1301 37.3801 14.3601 36.5201 12.5001 36.3201C11.9801 36.2601 11.4801 36.8201 11.5001 37.3201C11.5301 37.9101 11.9401 38.2601 12.5001 38.3201L12.5101 38.3301Z" fill="black"/>
<path d="M30.79 36.4205V40.9505C30.79 41.4705 31.25 41.9705 31.79 41.9505C32.33 41.9305 32.79 41.5105 32.79 40.9505V36.4205C32.79 35.9005 32.33 35.4005 31.79 35.4205C31.25 35.4405 30.79 35.8605 30.79 36.4205Z" fill="black"/>
<path d="M49.2002 36.0006C49.1502 37.6006 49.1002 39.2006 49.0502 40.8106C49.0302 41.3306 49.5202 41.8306 50.0502 41.8106C50.6102 41.7906 51.0302 41.3706 51.0502 40.8106C51.1002 39.2106 51.1502 37.6106 51.2002 36.0006C51.2202 35.4806 50.7302 34.9806 50.2002 35.0006C49.6402 35.0206 49.2202 35.4406 49.2002 36.0006Z" fill="black"/>
<path d="M50.2699 45.0903C43.9599 44.9203 37.6499 44.9803 31.3499 45.3003C31.3499 45.3003 30.4999 57.5803 41.2299 58.0503C50.8299 58.4703 50.2599 45.0903 50.2599 45.0903H50.2699Z" fill="white"/>
<path d="M50.27 44.0903C43.96 43.9203 37.65 43.9903 31.35 44.3003C30.78 44.3303 30.39 44.7403 30.35 45.3003C30.06 49.6703 31.64 54.7103 35.36 57.2603C38.23 59.2303 42.56 59.7503 45.7 58.1303C48.39 56.7403 49.88 53.8503 50.61 51.0203C51.1 49.1203 51.36 47.0603 51.28 45.1003C51.23 43.8203 49.23 43.8103 49.28 45.1003C49.42 48.6603 48.66 53.3003 45.79 55.6903C43.43 57.6503 39.63 57.3903 37.07 55.9703C34.8 54.7103 33.48 52.4103 32.84 49.9503C32.45 48.4403 32.25 46.8903 32.35 45.3103L31.35 46.3103C37.65 46.0003 43.96 45.9403 50.27 46.1003C51.56 46.1303 51.56 44.1303 50.27 44.1003V44.0903Z" fill="black"/>
<path d="M20.2299 32.4301C20.2299 32.4301 33.9699 55.9601 24.0899 60.6701C12.8299 66.0301 2.57995 50.9601 3.88995 39.7201C5.19995 28.4801 14.8399 23.3701 14.8399 23.3701C14.8399 23.3701 14.2599 13.8801 24.0399 8.33011C33.8199 2.78011 40.6799 8.77011 40.6799 8.77011C40.6799 8.77011 48.7399 2.87011 56.1899 7.40011C63.6399 11.9301 63.4399 22.0801 63.4399 22.0801C63.4399 22.0801 77.1799 21.5201 77.0899 38.5501C77.0099 53.7201 67.0599 61.4901 60.2899 60.1501C49.8399 58.0801 61.5599 30.9301 61.5599 30.9301C61.5599 30.9301 47.1599 31.9701 41.4199 21.1801C41.4199 21.1801 37.4199 27.1301 31.7299 29.8001C26.3399 32.3301 20.2499 32.4401 20.2499 32.4401L20.2299 32.4301Z" fill="black"/>
</g>
<defs>
<clipPath id="clip0_34_329">
<rect width="80" height="80" fill="white"/>
</clipPath>
</defs>
</svg>
